<svg xmlns="http://www.w3.org/2000/svg" width="20.601" height="20.6" viewBox="0 0 20.601 20.6"><path id="telephone-fill" d="M2.427.658a2.247,2.247,0,0,1,3.361.21L8.1,3.837A2.246,2.246,0,0,1,8.5,5.76L7.8,8.58a.873.873,0,0,0,.229.828l3.164,3.164a.873.873,0,0,0,.829.229l2.818-.7a2.247,2.247,0,0,1,1.924.406l2.969,2.31a2.246,2.246,0,0,1,.21,3.362L18.612,19.5a3.575,3.575,0,0,1-3.7.9,23.992,23.992,0,0,1-9.026-5.691A23.992,23.992,0,0,1,.191,5.693a3.579,3.579,0,0,1,.905-3.7Z" transform="translate(0 -0.001)" fill="#c8102e" fill-rule="evenodd"></path></svg>